<svg xmlns="http://www.w3.org/2000/svg" viewBox="0 0 63.725 49"><defs><style>.a{fill:#0ac5d4;}.b{fill:#253a44;}</style></defs><g transform="translate(-833.275 -156)"><path class="a" d="M18.41-10.5H12.215v6.125H8.47V-10.5h-6.2V-14h6.2v-6.125h3.745V-14H18.41Z" transform="translate(831 185)"/><g transform="translate(848 156)"><g transform="translate(0)"><path class="b" d="M41.824,31.676a24.406,24.406,0,0,0-9.31-5.84,14.164,14.164,0,1,0-16.028,0A24.539,24.539,0,0,0,0,49H3.828a20.672,20.672,0,1,1,41.344,0H49A24.34,24.34,0,0,0,41.824,31.676ZM24.5,24.5A10.336,10.336,0,1,1,34.836,14.164,10.348,10.348,0,0,1,24.5,24.5Z" transform="translate(0)"/></g></g></g></svg>